name D:\PhD\Datasets\SharingData_IBEC_VALDUCE\RM2_Comp_0001.mot
datacolumns 46
datarows 4
range 7.51000000 7.54000000
endheader
                time	         pelvis_tilt	     pelvis_rotation	           pelvis_tx	           pelvis_ty	           pelvis_tz	       hip_flexion_r	     hip_adduction_r	      hip_rotation_r	        knee_angle_r	       ankle_angle_r	    subtalar_angle_r	         mtp_angle_r	       hip_flexion_l	     hip_adduction_l	      hip_rotation_l	        knee_angle_l	       ankle_angle_l	    subtalar_angle_l	         mtp_angle_l	    lumbar_extension	      lumbar_bending	     lumbar_rotation	          arm_flex_r	           arm_add_r	           arm_rot_r	        elbow_flex_r	           pro_sup_r	        wrist_flex_r	         wrist_dev_r	          arm_flex_l	           arm_add_l	           arm_rot_l	        elbow_flex_l	           pro_sup_l	        wrist_flex_l	         wrist_dev_l	          end_eff_tx	          end_eff_ty	          end_eff_tz	             goal_tx	             goal_ty	             goal_tz	            elbow_tx	            elbow_ty	            elbow_tz	
          7.51000000	          0.00000000	          0.00000000	        311.36982211	        509.26100598	        377.01975742	          0.00000000	          0.00000000	          0.00000000	          0.00000000	          0.00000000	          0.00000000	          0.00000000	          0.00000000	          0.00000000	          0.00000000	          0.00000000	          0.00000000	          0.00000000	          0.00000000	         -0.73062468	          6.88650846	         -4.74731970	         -9.81230736	        -41.65601730	         14.20226192	         87.55075836	        106.00155640	          0.00000000	          0.00000000	          0.00000000	          0.00000000	          0.00000000	          0.00000000	          0.00000000	          0.00000000	          0.00000000	        488.46234306	        194.65469615	        534.70043738	       1109.39598293	        673.21312492	        509.67591257	        127.54419472	        311.79499087	        712.57821080	
          7.52000000	          0.00000000	          0.00000000	        311.45919525	        509.33421770	        377.13312392	          0.00000000	          0.00000000	          0.00000000	          0.00000000	          0.00000000	          0.00000000	          0.00000000	          0.00000000	          0.00000000	          0.00000000	          0.00000000	          0.00000000	          0.00000000	          0.00000000	         -0.79995537	          6.90655756	         -4.74639797	         -9.77794647	        -41.63626480	         14.19962692	         87.53471375	        105.93589783	          0.00000000	          0.00000000	          0.00000000	          0.00000000	          0.00000000	          0.00000000	          0.00000000	          0.00000000	          0.00000000	        488.38660417	        194.45744339	        534.69253168	       1109.40121620	        673.25541429	        509.70858231	        127.40949763	        311.77834852	        712.36606050	
          7.53000000	          0.00000000	          0.00000000	        311.53436820	        509.39775683	        377.22738208	          0.00000000	          0.00000000	          0.00000000	          0.00000000	          0.00000000	          0.00000000	          0.00000000	          0.00000000	          0.00000000	          0.00000000	          0.00000000	          0.00000000	          0.00000000	          0.00000000	         -0.78487271	          6.90663719	         -4.75591230	         -9.82162189	        -41.58874893	         14.21991444	         87.52079010	        105.80105591	          0.00000000	          0.00000000	          0.00000000	          0.00000000	          0.00000000	          0.00000000	          0.00000000	          0.00000000	          0.00000000	        488.26971537	        194.08045507	        534.63764560	       1109.39323784	        673.22097107	        509.69953237	        127.34993399	        311.74904710	        712.15291786	
          7.54000000	          0.00000000	          0.00000000	        311.62573991	        509.44733774	        377.30900521	          0.00000000	          0.00000000	          0.00000000	          0.00000000	          0.00000000	          0.00000000	          0.00000000	          0.00000000	          0.00000000	          0.00000000	          0.00000000	          0.00000000	          0.00000000	          0.00000000	         -0.75761825	          6.92233849	         -4.74605751	         -9.90025234	        -41.57506561	         14.20092583	         87.52312469	        105.81082916	          0.00000000	          0.00000000	          0.00000000	          0.00000000	          0.00000000	          0.00000000	          0.00000000	          0.00000000	          0.00000000	        488.15959972	        193.68191234	        534.51137727	       1109.40818904	        673.23845541	        509.69963609	        127.35566784	        311.69655581	        711.93629860	
